<svg version="1.2" xmlns="http://www.w3.org/2000/svg" viewBox="0 0 1200 1200" width="1200" height="1200">
	<title>1044316_OKYJ1L1-ai</title>
	<style>
		.s0 { fill: #ffffff } 
		.s1 { fill: #f8ca4d } 
		.s2 { fill: #f5f5f5 } 
		.s3 { fill: #ffdc7b } 
		.s4 { fill: #b9d7ff } 
		.s5 { fill: #82b7ff } 
		.s6 { fill: #3498db } 
		.s7 { fill: #e84131 } 
	</style>
	<g id="Layer 1">
		<g id="&lt;Group&gt;">
			<g id="&lt;Group&gt;">
				<path id="&lt;Path&gt;" class="s0" d="m245.9 197.6q-0.2 0-0.3 0c1.6-3.6 2.4-7.5 2.4-11.6 0-16.3-13.1-29.4-29.3-29.4-5.8 0-11.1 1.7-15.6 4.5-6.1-14.8-20.7-25.3-37.8-25.3-22.5 0-40.8 18.3-40.8 40.8 0 1.7 0.1 3.4 0.4 5q-0.2 0-0.4 0c-15.1 0-27.4 12.3-27.4 27.4 0 15.1 12.3 27.4 27.4 27.4h121.4c10.7 0 19.4-8.7 19.4-19.4 0-10.8-8.7-19.4-19.4-19.4z"/>
				<g id="&lt;Group&gt;">
					<path id="&lt;Path&gt;" class="s1" d="m1047.6 186.1c0 16.9-13.7 30.7-30.6 30.7-17 0-30.7-13.8-30.7-30.7 0-16.9 13.7-30.7 30.7-30.7 16.9 0 30.6 13.8 30.6 30.7z"/>
					<g id="&lt;Group&gt;">
						<path id="&lt;Path&gt;" class="s1" d="m1017 143.8c-2.1 0-3.7-1.7-3.7-3.7v-26.2c0-2 1.6-3.6 3.7-3.6 2 0 3.6 1.6 3.6 3.6v26.2c0 2-1.6 3.7-3.6 3.7z"/>
						<path id="&lt;Path&gt;" class="s1" d="m1017 261.9c-2.1 0-3.7-1.6-3.7-3.7v-26.1c0-2 1.6-3.7 3.7-3.7 2 0 3.6 1.7 3.6 3.7v26.1c0 2.1-1.6 3.7-3.6 3.7z"/>
					</g>
					<g id="&lt;Group&gt;">
						<path id="&lt;Path&gt;" class="s1" d="m1046.9 156.2c-1.4-1.5-1.4-3.8 0-5.2l18.5-18.5c1.4-1.5 3.7-1.5 5.2 0 1.4 1.4 1.4 3.7 0 5.2l-18.5 18.5c-1.4 1.4-3.8 1.4-5.2 0z"/>
						<path id="&lt;Path&gt;" class="s1" d="m963.4 239.7c-1.5-1.4-1.5-3.8 0-5.2l18.4-18.5c1.5-1.4 3.8-1.4 5.2 0 1.5 1.4 1.5 3.8 0 5.2l-18.4 18.5c-1.5 1.4-3.8 1.4-5.2 0z"/>
					</g>
					<g id="&lt;Group&gt;">
						<path id="&lt;Path&gt;" class="s1" d="m1059.3 186.1c0-2 1.6-3.7 3.7-3.7h26.1c2 0 3.7 1.7 3.7 3.7 0 2-1.7 3.7-3.7 3.7h-26.1c-2.1 0-3.7-1.7-3.7-3.7z"/>
						<path id="&lt;Path&gt;" class="s1" d="m941.1 186.1c0-2 1.7-3.7 3.7-3.7h26.2c2 0 3.6 1.7 3.6 3.7 0 2-1.6 3.7-3.6 3.7h-26.2c-2 0-3.7-1.7-3.7-3.7z"/>
					</g>
					<g id="&lt;Group&gt;">
						<path id="&lt;Path&gt;" class="s1" d="m1046.9 216c1.4-1.4 3.8-1.4 5.2 0l18.5 18.5c1.4 1.4 1.4 3.8 0 5.2-1.5 1.4-3.8 1.4-5.2 0l-18.5-18.5c-1.4-1.4-1.4-3.8 0-5.2z"/>
						<path id="&lt;Path&gt;" class="s1" d="m963.4 132.5c1.4-1.5 3.7-1.5 5.2 0l18.4 18.5c1.5 1.4 1.5 3.7 0 5.2-1.4 1.4-3.7 1.4-5.2 0l-18.4-18.5c-1.5-1.5-1.5-3.8 0-5.2z"/>
					</g>
				</g>
				<g id="&lt;Group&gt;">
					<path id="&lt;Path&gt;" class="s2" d="m839.7 176.4q-0.1 0-0.2 0c1.2-3 2-6.2 2-9.7 0-13.4-10.9-24.3-24.4-24.3-4.7 0-9.2 1.4-12.9 3.7-5.1-12.3-17.2-20.9-31.3-20.9-18.7 0-33.9 15.1-33.9 33.8q0 2.1 0.3 4.2-0.1 0-0.3 0c-12.5 0-22.7 10.1-22.7 22.7 0 12.5 10.2 22.7 22.7 22.7h100.7c8.9 0 16.1-7.2 16.1-16.1 0-8.9-7.2-16.1-16.1-16.1z"/>
					<path id="&lt;Path&gt;" class="s0" d="m799.3 197.6q-0.1 0-0.2 0c1.5-3.6 2.4-7.5 2.4-11.6 0-16.3-13.2-29.4-29.4-29.4-5.7 0-11 1.7-15.5 4.5-6.2-14.8-20.7-25.3-37.8-25.3-22.6 0-40.8 18.3-40.8 40.8 0 1.7 0.1 3.4 0.3 5q-0.2 0-0.3 0c-15.2 0-27.4 12.3-27.4 27.4 0 15.1 12.2 27.4 27.4 27.4h121.3c10.7 0 19.4-8.7 19.4-19.4 0-10.8-8.7-19.4-19.4-19.4z"/>
				</g>
				<g id="&lt;Group&gt;">
					<g id="&lt;Group&gt;">
						<path id="&lt;Path&gt;" class="s3" d="m448.7 152.1c0 14.3-11.7 26-26.1 26-14.3 0-26-11.7-26-26 0-14.4 11.7-26.1 26-26.1 14.4 0 26.1 11.7 26.1 26.1z"/>
						<g id="&lt;Group&gt;">
							<path id="&lt;Path&gt;" class="s3" d="m422.6 116.2c-1.7 0-3.1-1.4-3.1-3.2v-22.2c0-1.7 1.4-3.1 3.1-3.1 1.8 0 3.2 1.4 3.2 3.1v22.2c0 1.8-1.4 3.2-3.2 3.2z"/>
							<path id="&lt;Path&gt;" class="s3" d="m422.6 216.4c-1.7 0-3.1-1.4-3.1-3.1v-22.2c0-1.7 1.4-3.1 3.1-3.1 1.8 0 3.2 1.4 3.2 3.1v22.2c0 1.7-1.4 3.1-3.2 3.1z"/>
						</g>
						<g id="&lt;Group&gt;">
							<path id="&lt;Path&gt;" class="s3" d="m448 126.7c-1.2-1.2-1.2-3.2 0-4.4l15.7-15.7c1.2-1.2 3.2-1.2 4.4 0 1.3 1.2 1.3 3.2 0 4.4l-15.7 15.7c-1.2 1.2-3.2 1.2-4.4 0z"/>
							<path id="&lt;Path&gt;" class="s3" d="m377.1 197.6c-1.2-1.3-1.2-3.2 0-4.4l15.7-15.7c1.3-1.3 3.2-1.3 4.4 0 1.3 1.2 1.3 3.2 0 4.4l-15.6 15.7c-1.3 1.2-3.2 1.2-4.5 0z"/>
						</g>
						<g id="&lt;Group&gt;">
							<path id="&lt;Path&gt;" class="s3" d="m458.5 152.1c0-1.8 1.4-3.2 3.2-3.2h22.2c1.7 0 3.1 1.4 3.1 3.2 0 1.7-1.4 3.1-3.1 3.1h-22.2c-1.8 0-3.2-1.4-3.2-3.1z"/>
							<path id="&lt;Path&gt;" class="s3" d="m358.3 152.1c0-1.8 1.4-3.2 3.1-3.2h22.2c1.7 0 3.1 1.4 3.1 3.2 0 1.7-1.4 3.1-3.1 3.1h-22.2c-1.7 0-3.1-1.4-3.1-3.1z"/>
						</g>
						<g id="&lt;Group&gt;">
							<path id="&lt;Path&gt;" class="s3" d="m448 177.5c1.2-1.3 3.2-1.3 4.4 0l15.7 15.7c1.3 1.2 1.3 3.1 0 4.4-1.2 1.2-3.2 1.2-4.4 0l-15.7-15.7c-1.2-1.2-1.2-3.2 0-4.4z"/>
							<path id="&lt;Path&gt;" class="s3" d="m377.1 106.6c1.3-1.2 3.2-1.2 4.5 0l15.6 15.7c1.3 1.2 1.3 3.2 0 4.4-1.2 1.2-3.1 1.2-4.4 0l-15.7-15.7c-1.2-1.2-1.2-3.2 0-4.4z"/>
						</g>
					</g>
					<path id="&lt;Path&gt;" class="s0" d="m541.9 197.6q-0.1 0-0.3 0c1.6-3.6 2.4-7.5 2.4-11.6 0-16.3-13.1-29.4-29.3-29.4-5.7 0-11.1 1.7-15.6 4.5-6.1-14.8-20.7-25.3-37.7-25.3-22.6 0-40.9 18.3-40.9 40.8 0 1.7 0.2 3.4 0.4 5q-0.2 0-0.4 0c-15.1 0-27.3 12.3-27.3 27.4 0 15.1 12.2 27.4 27.3 27.4h121.4c10.7 0 19.4-8.7 19.4-19.4 0-10.8-8.7-19.4-19.4-19.4z"/>
				</g>
				<g id="&lt;Group&gt;">
					<path id="&lt;Path&gt;" class="s0" d="m245.9 469.8q-0.2 0-0.3 0c1.6-3.6 2.4-7.5 2.4-11.7 0-16.2-13.1-29.3-29.3-29.3-5.8 0-11.1 1.7-15.6 4.5-6.1-14.8-20.7-25.3-37.8-25.3-22.5 0-40.8 18.3-40.8 40.8 0 1.7 0.1 3.4 0.4 5q-0.2 0-0.4 0c-15.1 0-27.4 12.3-27.4 27.4 0 15.1 12.3 27.4 27.4 27.4h121.4c10.7 0 19.4-8.7 19.4-19.4 0-10.8-8.7-19.4-19.4-19.4z"/>
					<path id="&lt;Path&gt;" class="s0" d="m150.9 556.4c-3.3 6.9-11.5 9.8-18.4 6.5-6.8-3.3-9.7-11.6-6.4-18.4 3.3-6.9 24.6-19.4 24.6-19.4 0 0 3.5 24.5 0.2 31.3z"/>
					<path id="&lt;Path&gt;" class="s0" d="m185.2 556.4c-3.3 6.9-11.5 9.8-18.4 6.5-6.8-3.3-9.7-11.6-6.4-18.4 3.3-6.9 24.6-19.4 24.6-19.4 0 0 3.5 24.5 0.2 31.3z"/>
					<path id="&lt;Path&gt;" class="s0" d="m220 556.4c-3.3 6.9-11.6 9.8-18.4 6.5-6.9-3.3-9.8-11.6-6.5-18.4 3.3-6.9 24.7-19.4 24.7-19.4 0 0 3.5 24.5 0.2 31.3z"/>
				</g>
				<g id="&lt;Group&gt;">
					<path id="&lt;Path&gt;" class="s4" d="m690.4 1064.3c-3.3 6.9-0.4 15.1 6.5 18.4 6.8 3.3 15.1 0.4 18.4-6.4 3.3-6.9-0.3-31.4-0.3-31.4 0 0-21.3 12.6-24.6 19.4z"/>
					<path id="&lt;Path&gt;" class="s4" d="m727.2 1064.3c-3.3 6.9-0.4 15.1 6.4 18.4 6.9 3.3 15.1 0.4 18.4-6.4 3.3-6.9-0.2-31.4-0.2-31.4 0 0-21.3 12.6-24.6 19.4z"/>
					<path id="&lt;Path&gt;" class="s4" d="m742.9 1031.9c3.3-6.9-0.2-31.4-0.2-31.4 0 0-21.4 12.5-24.7 19.4-3.3 6.9-0.4 15.1 6.5 18.4 6.8 3.3 15.1 0.4 18.4-6.4z"/>
					<path id="&lt;Path&gt;" class="s4" d="m764.5 1038.3c6.9 3.3 15.1 0.4 18.4-6.4 3.3-6.9-0.2-31.4-0.2-31.4 0 0-21.3 12.5-24.6 19.4-3.3 6.9-0.4 15.1 6.4 18.4z"/>
					<path id="&lt;Path&gt;" class="s4" d="m776.7 991c3.3-6.9-0.2-31.4-0.2-31.4 0 0-21.3 12.6-24.6 19.4-3.3 6.9-0.4 15.1 6.4 18.4 6.9 3.3 15.1 0.4 18.4-6.4z"/>
					<path id="&lt;Path&gt;" class="s4" d="m786.1 1044.9c0 0-21.4 12.6-24.6 19.4-3.3 6.9-0.5 15.1 6.4 18.4 6.9 3.3 15.1 0.4 18.4-6.4 3.3-6.9-0.2-31.4-0.2-31.4z"/>
				</g>
				<g id="&lt;Group&gt;">
					<path id="&lt;Path&gt;" class="s0" d="m524.4 469.8q-0.1 0-0.2 0c1.5-3.6 2.4-7.5 2.4-11.7 0-16.2-13.1-29.3-29.3-29.3-5.8 0-11.1 1.7-15.6 4.5-6.1-14.8-20.7-25.3-37.8-25.3-22.5 0-40.8 18.3-40.8 40.8 0 1.7 0.1 3.4 0.3 5q-0.1 0-0.3 0c-15.1 0-27.4 12.3-27.4 27.4 0 15.1 12.3 27.4 27.4 27.4h121.3c10.8 0 19.5-8.7 19.5-19.4 0-10.8-8.7-19.4-19.5-19.4z"/>
					<path id="&lt;Path&gt;" class="s3" d="m450.6 520.3l-10.5 32h14.5l-9.4 32.5 34.3-45.9h-17.7l6.7-18.6z"/>
				</g>
				<g id="&lt;Group&gt;">
					<path id="&lt;Path&gt;" class="s0" d="m1081.6 469.8q-0.1 0-0.2 0c1.5-3.6 2.4-7.5 2.4-11.6 0-16.2-13.2-29.4-29.4-29.4-5.7 0-11 1.7-15.5 4.5-6.1-14.8-20.7-25.3-37.8-25.3-22.5 0-40.8 18.3-40.8 40.8 0 1.7 0.1 3.4 0.3 5.1q-0.2 0-0.3-0.1c-15.1 0-27.4 12.3-27.4 27.4 0 15.1 12.3 27.4 27.4 27.4h121.3c10.7 0 19.4-8.7 19.4-19.4 0-10.7-8.7-19.4-19.4-19.4z"/>
					<path id="&lt;Path&gt;" class="s0" d="m969.3 556.4c-3.3 6.9-11.5 9.8-18.4 6.5-6.8-3.3-9.7-11.6-6.4-18.4 3.3-6.9 24.6-19.4 24.6-19.4 0 0 3.5 24.5 0.2 31.3z"/>
					<path id="&lt;Path&gt;" class="s0" d="m1089.4 556.4c-3.3 6.9-11.5 9.8-18.4 6.5-6.8-3.3-9.7-11.6-6.4-18.4 3.3-6.9 24.6-19.4 24.6-19.4 0 0 3.5 24.5 0.2 31.3z"/>
					<path id="&lt;Path&gt;" class="s3" d="m1006.1 520.3l-12.5 38.1h17.2l-11.1 38.6 40.6-54.5h-21l8-22.2z"/>
				</g>
				<g id="&lt;Group&gt;">
					<path id="&lt;Path&gt;" class="s0" d="m803 469.8q-0.1 0-0.2 0c1.5-3.6 2.4-7.5 2.4-11.7 0-16.2-13.1-29.3-29.4-29.3-5.7 0-11 1.7-15.5 4.5-6.1-14.8-20.7-25.3-37.8-25.3-22.5 0-40.8 18.3-40.8 40.8 0 1.7 0.1 3.4 0.3 5q-0.1 0-0.3 0c-15.1 0-27.4 12.3-27.4 27.4 0 15.1 12.3 27.4 27.4 27.4h121.3c10.8 0 19.4-8.7 19.4-19.4 0-10.8-8.6-19.4-19.4-19.4z"/>
					<path id="&lt;Path&gt;" class="s0" d="m706.8 535.3c0 3.3-2.7 6-6 6-3.3 0-6-2.7-6-6 0-3.3 2.7-6 6-6 3.3 0 6 2.7 6 6z"/>
					<path id="&lt;Path&gt;" class="s0" d="m744.4 535.3c0 3.3-2.7 6-6 6-3.3 0-6-2.7-6-6 0-3.3 2.7-6 6-6 3.3 0 6 2.7 6 6z"/>
					<path id="&lt;Path&gt;" class="s0" d="m744.4 583.4c0 3.3-2.7 6-6 6-3.3 0-6-2.7-6-6 0-3.3 2.7-6 6-6 3.3 0 6 2.7 6 6z"/>
					<path id="&lt;Path&gt;" class="s0" d="m724.4 558.8c0 3.4-2.7 6-6 6-3.3 0-6-2.6-6-6 0-3.3 2.7-5.9 6-5.9 3.3 0 6 2.6 6 5.9z"/>
					<path id="&lt;Path&gt;" class="s0" d="m764.7 558.8c0 3.4-2.6 6-5.9 6-3.4 0-6-2.6-6-6 0-3.3 2.6-5.9 6-5.9 3.3 0 5.9 2.6 5.9 5.9z"/>
					<path id="&lt;Path&gt;" class="s0" d="m781.9 535.3c0 3.3-2.7 6-6 6-3.3 0-6-2.7-6-6 0-3.3 2.7-6 6-6 3.3 0 6 2.7 6 6z"/>
				</g>
				<path id="&lt;Path&gt;" class="s3" d="m1051.3 797c9.3 0 18.1-2.4 25.7-6.6-12.6 13.7-30.7 22.2-50.8 22.2-38.2 0-69.3-31-69.3-69.3 0-38.3 31.1-69.4 69.3-69.4 20.1 0 38.2 8.5 50.8 22.2-7.6-4.2-16.4-6.6-25.7-6.6-29.7 0-53.7 24.1-53.7 53.8 0 29.6 24 53.7 53.7 53.7z"/>
				<g id="&lt;Group&gt;">
					<path id="&lt;Path&gt;" class="s0" d="m793.5 748.1q-0.1 0-0.3 0c1.6-3.5 2.5-7.5 2.5-11.6 0-16.2-13.2-29.4-29.4-29.4-5.7 0-11 1.7-15.6 4.5-6.1-14.8-20.7-25.3-37.7-25.3-22.6 0-40.9 18.3-40.9 40.9 0 1.7 0.2 3.3 0.4 5q-0.2 0-0.4 0c-15.1 0-27.3 12.2-27.3 27.3 0 15.2 12.2 27.4 27.3 27.4h121.4c10.7 0 19.4-8.7 19.4-19.4 0-10.7-8.7-19.4-19.4-19.4z"/>
					<path id="&lt;Path&gt;" class="s0" d="m778.4 693.1h-62.1c-1.8 0-3.3-1.5-3.3-3.4 0-1.9 1.5-3.4 3.3-3.4h62.1c1.9 0 3.4 1.5 3.4 3.4 0 1.9-1.5 3.4-3.4 3.4z"/>
					<path id="&lt;Path&gt;" class="s0" d="m828.6 693.1h-36c-1.8 0-3.3-1.5-3.3-3.4 0-1.9 1.5-3.4 3.3-3.4h36c1.9 0 3.4 1.5 3.4 3.4 0 1.9-1.5 3.4-3.4 3.4z"/>
					<path id="&lt;Path&gt;" class="s0" d="m803.9 713.9h-37.1c-1.9 0-3.4-1.5-3.4-3.4 0-1.8 1.5-3.3 3.4-3.3h37.1c1.8 0 3.3 1.5 3.3 3.3 0 1.9-1.5 3.4-3.3 3.4z"/>
					<path id="&lt;Path&gt;" class="s0" d="m828.4 713.9h-9.8c-1.9 0-3.4-1.5-3.4-3.4 0-1.8 1.5-3.3 3.4-3.3h9.8c1.9 0 3.4 1.5 3.4 3.3 0 1.9-1.5 3.4-3.4 3.4z"/>
					<path id="&lt;Path&gt;" class="s0" d="m828.4 754.6h-61.6c-1.9 0-3.4-1.5-3.4-3.4 0-1.8 1.5-3.3 3.4-3.3h61.6c1.9 0 3.4 1.5 3.4 3.3 0 1.9-1.5 3.4-3.4 3.4z"/>
					<path id="&lt;Path&gt;" class="s0" d="m828.4 786.9h-61.6c-1.9 0-3.4-1.5-3.4-3.3 0-1.9 1.5-3.4 3.4-3.4h61.6c1.9 0 3.4 1.5 3.4 3.4 0 1.8-1.5 3.3-3.4 3.3z"/>
				</g>
				<g id="&lt;Group&gt;">
					<path id="&lt;Path&gt;" class="s0" d="m462 1098.6h-4.4c-2.5 0-4.6-2-4.6-4.6v-144.3c0-2.6 2.1-4.6 4.6-4.6h4.4c2.5 0 4.6 2 4.6 4.6v144.3c0 2.6-2.1 4.6-4.6 4.6z"/>
					<g id="&lt;Group&gt;">
						<path id="&lt;Path&gt;" class="s0" d="m486.5 956.2c1.8 1.8 1.8 4.7 0 6.5l-26.6 26.6-0.1-0.1-0.1 0.1-26.6-26.6c-1.8-1.8-1.8-4.7 0-6.5l3.1-3.1c1.8-1.8 4.7-1.8 6.5 0l13.9 13.9c1.8 1.8 4.7 1.8 6.4 0l13.9-13.9c1.8-1.8 4.7-1.8 6.5 0z"/>
						<path id="&lt;Path&gt;" class="s0" d="m433.1 1087.5c-1.8-1.8-1.8-4.7 0-6.5l26.6-26.6 0.1 0.1 0.1-0.1 26.6 26.6c1.8 1.8 1.8 4.7 0 6.5l-3.1 3.1c-1.8 1.8-4.7 1.8-6.5 0l-13.9-13.9c-1.8-1.8-4.7-1.8-6.5 0l-13.8 13.9c-1.8 1.8-4.7 1.8-6.5 0z"/>
					</g>
					<path id="&lt;Path&gt;" class="s0" d="m383 1024.1v-4.5c0-2.5 2.1-4.5 4.6-4.5h144.4c2.5 0 4.6 2 4.6 4.5v4.5c0 2.5-2.1 4.5-4.6 4.5h-144.4c-2.5 0-4.6-2-4.6-4.5z"/>
					<g id="&lt;Group&gt;">
						<path id="&lt;Path&gt;" class="s0" d="m525.4 1048.6c-1.8 1.7-4.7 1.7-6.5 0l-26.6-26.6 0.1-0.1-0.1-0.2 26.6-26.5c1.8-1.8 4.7-1.8 6.5 0l3.1 3.1c1.8 1.8 1.8 4.7 0 6.5l-13.9 13.8c-1.7 1.8-1.7 4.7 0 6.5l13.9 13.9c1.8 1.7 1.8 4.7 0 6.4z"/>
						<path id="&lt;Path&gt;" class="s0" d="m394.2 995.1c1.8-1.7 4.7-1.7 6.5 0l26.6 26.6-0.2 0.1 0.2 0.2-26.6 26.6c-1.8 1.7-4.7 1.7-6.5-0.1l-3.1-3.1c-1.8-1.8-1.8-4.7 0-6.5l13.8-13.8c1.8-1.8 1.8-4.7 0-6.5l-13.8-13.9c-1.8-1.7-1.8-4.6 0-6.4z"/>
					</g>
					<path id="&lt;Path&gt;" class="s0" d="m423.1 1058.5c-1.8-1.8-1.8-4.7 0-6.5l66.9-66.8c1.8-1.8 4.7-1.8 6.5 0 1.8 1.8 1.8 4.7 0 6.5l-66.9 66.8c-1.8 1.8-4.7 1.8-6.5 0z"/>
					<g id="&lt;Group&gt;">
						<path id="&lt;Path&gt;" class="s0" d="m503.9 1001.8c0 2.5-2.1 4.6-4.6 4.6h-23.9v-0.1h-0.1v-24c0-2.5 2-4.5 4.6-4.5 2.5 0 4.6 2 4.6 4.5v10.3c0 2.6 2 4.6 4.5 4.6h10.3c2.5 0 4.6 2.1 4.6 4.6z"/>
						<path id="&lt;Path&gt;" class="s0" d="m415.7 1041.9c0-2.5 2-4.6 4.6-4.6h23.9v0.1h0.1v24c0 2.5-2 4.5-4.6 4.5-2.5 0-4.6-2-4.6-4.5v-10.3c0-2.6-2-4.6-4.6-4.6h-10.2c-2.5 0-4.6-2-4.6-4.6z"/>
					</g>
					<path id="&lt;Path&gt;" class="s0" d="m423.1 985.2c1.8-1.8 4.7-1.8 6.5 0l66.9 66.8c1.8 1.8 1.8 4.7 0 6.5-1.8 1.8-4.7 1.8-6.5 0l-66.9-66.8c-1.8-1.8-1.8-4.7 0-6.5z"/>
					<g id="&lt;Group&gt;">
						<path id="&lt;Path&gt;" class="s0" d="m479.9 1065.9c-2.6 0-4.6-2-4.6-4.5v-24l0.1 0.1v-0.2h23.9c2.5 0 4.6 2.1 4.6 4.6 0 2.6-2.1 4.6-4.6 4.6h-10.3c-2.5 0-4.6 2.1-4.6 4.6v10.3c0 2.5-2 4.5-4.5 4.5z"/>
						<path id="&lt;Path&gt;" class="s0" d="m439.7 977.8c2.6 0 4.6 2 4.6 4.5v24l-0.1-0.1v0.2h-23.9c-2.5 0-4.6-2.1-4.6-4.6 0-2.6 2.1-4.6 4.6-4.6h10.3c2.5 0 4.5-2.1 4.5-4.6v-10.3c0-2.5 2.1-4.5 4.6-4.5z"/>
					</g>
				</g>
				<g id="&lt;Group&gt;">
					<path id="&lt;Path&gt;" class="s3" d="m506.9 706c4.7 0 9.2-1.2 13-3.3-6.4 6.9-15.5 11.2-25.6 11.2-19.4 0-35.1-15.7-35.1-35 0-19.4 15.7-35.1 35.1-35.1 10.1 0 19.2 4.3 25.6 11.2-3.8-2.1-8.3-3.3-13-3.3-15 0-27.1 12.2-27.1 27.2 0 15 12.1 27.1 27.1 27.1z"/>
					<path id="&lt;Path&gt;" class="s0" d="m524.4 748.1q-0.1 0-0.2 0c1.5-3.5 2.4-7.5 2.4-11.6 0-16.2-13.1-29.4-29.3-29.4-5.8 0-11.1 1.7-15.6 4.5-6.1-14.8-20.7-25.3-37.8-25.3-22.5 0-40.8 18.3-40.8 40.9 0 1.7 0.1 3.3 0.3 5q-0.1 0-0.3 0c-15.1 0-27.4 12.2-27.4 27.3 0 15.2 12.3 27.4 27.4 27.4h121.3c10.8 0 19.5-8.7 19.5-19.4 0-10.7-8.7-19.4-19.5-19.4z"/>
				</g>
				<g id="&lt;Group&gt;">
					<g id="&lt;Group&gt;">
						<path id="&lt;Path&gt;" class="s5" d="m1102.9 1005.3c-0.8-0.7-19.6-16.7-45 0 0 0-21.4-16.7-40.9 0-19.6-16.7-41 0-41 0-25.4-16.7-44.2-0.7-44.9 0 27.6-48.8 85.9-59.9 85.9-59.9 0 0 58.2 11.1 85.9 59.9z"/>
					</g>
					<g id="&lt;Group&gt;">
						<path id="&lt;Path&gt;" class="s5" d="m1007 1098.3c-7.5 0-13.6-6.1-13.6-13.6v-2.8c0-2 1.6-3.6 3.6-3.6 2 0 3.6 1.6 3.6 3.6v2.8c0 3.5 2.9 6.4 6.4 6.4 3.5 0 6.4-2.9 6.4-6.4v-104.5c0-2 1.6-3.6 3.6-3.6 2 0 3.6 1.6 3.6 3.6v104.5c0 7.5-6.1 13.6-13.6 13.6z"/>
					</g>
				</g>
				<g id="&lt;Group&gt;">
					<path id="&lt;Path&gt;" class="s0" d="m196.2 1036.5v-90.1c0-8.3-6.7-15-15-15-8.3 0-15 6.7-15 15v90.1c-14.3 5.9-24.4 19.9-24.4 36.4 0 21.7 17.7 39.4 39.4 39.4 21.8 0 39.4-17.7 39.4-39.4 0-16.5-10.1-30.5-24.4-36.4z"/>
					<path id="&lt;Path&gt;" class="s4" d="m181.2 1105.1c-17.7 0-32.2-14.5-32.2-32.2 0-13.1 7.8-24.8 20-29.8l4.4-1.8v-94.9c0-4.3 3.5-7.8 7.8-7.8 4.3 0 7.8 3.5 7.8 7.8v94.9l4.4 1.8c12.2 5 20 16.7 20 29.8 0 17.7-14.4 32.2-32.2 32.2z"/>
					<path id="&lt;Path&gt;" class="s6" d="m193.4 1043.1l-4.4-1.8v-14.4h-15.6v14.4l-4.4 1.8c-12.2 5-20 16.7-20 29.8 0 17.7 14.5 32.2 32.2 32.2 17.8 0 32.2-14.5 32.2-32.2 0-13.1-7.8-24.8-20-29.8z"/>
					<g id="&lt;Group&gt;">
						<path id="&lt;Path&gt;" class="s0" d="m181.2 1089.2c-1.5 0-2.8-1.2-2.8-2.8v-25.7c0-1.5 1.3-2.8 2.8-2.8 1.5 0 2.8 1.3 2.8 2.8v25.7c0 1.6-1.3 2.8-2.8 2.8z"/>
						<path id="&lt;Path&gt;" class="s0" d="m168.3 1082.4c-0.9-1.3-0.6-3 0.7-3.9l21.3-14.5c1.2-0.8 3-0.5 3.8 0.8 0.9 1.2 0.6 3-0.7 3.8l-21.2 14.5c-1.3 0.9-3.1 0.6-3.9-0.7z"/>
						<path id="&lt;Path&gt;" class="s0" d="m194.1 1082.4c0.9-1.3 0.6-3-0.7-3.9l-21.2-14.5c-1.3-0.8-3.1-0.5-3.9 0.8-0.9 1.2-0.6 3 0.7 3.8l21.3 14.5c1.2 0.9 3 0.6 3.8-0.7z"/>
					</g>
				</g>
				<g id="&lt;Group&gt;">
					<path id="&lt;Path&gt;" class="s0" d="m196.2 757.9v-90.1c0-8.3-6.7-15-15-15-8.3 0-15 6.7-15 15v90.1c-14.3 5.9-24.4 20-24.4 36.4 0 21.8 17.7 39.4 39.4 39.4 21.8 0 39.4-17.6 39.4-39.4 0-16.4-10.1-30.5-24.4-36.4z"/>
					<path id="&lt;Path&gt;" class="s4" d="m181.2 826.5c-17.7 0-32.2-14.4-32.2-32.2 0-13.1 7.8-24.8 20-29.8l4.4-1.8v-94.9c0-4.3 3.5-7.8 7.8-7.8 4.3 0 7.8 3.5 7.8 7.8v94.9l4.4 1.8c12.2 5 20 16.7 20 29.8 0 17.8-14.4 32.2-32.2 32.2z"/>
					<path id="&lt;Path&gt;" class="s7" d="m193.4 764.5l-4.4-1.8v-81.1h-15.6v81.1l-4.4 1.8c-12.2 5-20 16.7-20 29.8 0 17.8 14.5 32.2 32.2 32.2 17.8 0 32.2-14.4 32.2-32.2 0-13.1-7.8-24.8-20-29.8z"/>
					<path id="&lt;Path&gt;" class="s0" d="m181.2 811.6c-24.3 0-5.7-29.4-5.7-29.4v6.8l5.7-13.6 5.7 13.6v-6.8c0 0 18.6 29.4-5.7 29.4z"/>
				</g>
			</g>
		</g>
	</g>
</svg>