<?xml version="1.0" encoding="utf-8"?>
<!-- Generator: Adobe Illustrator 27.5.0, SVG Export Plug-In . SVG Version: 6.00 Build 0)  -->
<svg version="1.1" id="Background" xmlns="http://www.w3.org/2000/svg" xmlns:xlink="http://www.w3.org/1999/xlink" x="0px" y="0px"
	 viewBox="0 0 850 500" style="enable-background:new 0 0 850 500;" xml:space="preserve">
<g>
	<defs>
		<rect id="SVGID_1_" width="850" height="500"/>
	</defs>
	<clipPath id="SVGID_00000077299016628919933780000003008388190048516487_">
		<use xlink:href="#SVGID_1_"  style="overflow:visible;"/>
	</clipPath>
	<g style="clip-path:url(#SVGID_00000077299016628919933780000003008388190048516487_);">
		<rect style="fill:#35B5DC;" width="850" height="500"/>
		
			<radialGradient id="SVGID_00000117674934676342479780000017632265078831494049_" cx="459.4079" cy="358.1702" r="333.7529" gradientTransform="matrix(1.1081 0 0 0.591 -87.8727 146.5009)" gradientUnits="userSpaceOnUse">
			<stop  offset="0" style="stop-color:#FDFFB6"/>
			<stop  offset="1" style="stop-color:#FDFFB6;stop-opacity:0"/>
		</radialGradient>
		
			<ellipse style="opacity:0.6;fill:url(#SVGID_00000117674934676342479780000017632265078831494049_);" cx="421.197" cy="358.17" rx="369.807" ry="207.74"/>
		
			<radialGradient id="SVGID_00000055683074637489209940000011636944675124091024_" cx="426.6042" cy="328.4044" r="104.1812" gradientUnits="userSpaceOnUse">
			<stop  offset="0" style="stop-color:#FFFFFF"/>
			<stop  offset="0.9981" style="stop-color:#FFFFFF;stop-opacity:0"/>
		</radialGradient>
		<circle style="fill:url(#SVGID_00000055683074637489209940000011636944675124091024_);" cx="426.604" cy="328.404" r="112.051"/>
		<circle style="opacity:0.05;fill:#FFFFFF;" cx="619.335" cy="221.26" r="76.391"/>
		<circle style="opacity:0.03;fill:#FFFFFF;" cx="715.94" cy="156.749" r="58.762"/>
		
			<ellipse transform="matrix(0.7071 -0.7071 0.7071 0.7071 -33.5725 451.6212)" style="opacity:0.05;fill:#FFFFFF;" cx="528.369" cy="266.336" rx="89.158" ry="89.158"/>
		<path style="opacity:0.2;fill:#FFFFFF;" d="M38.188,330.938c0.34-7.463,10.054-9.934,17.517-10.268
			c12.092-0.54,24.188-0.986,36.286-1.338c1.391-5.52,7.939-8.043,13.632-8.078c5.693-0.034,11.444,1.519,17.02,0.371
			c4.541-0.935,8.684-3.622,13.315-3.852c4.63-0.23,9.97,4.004,8.187,8.283c4.684-4.064,11.811-0.208,16.685,3.627
			c11.156,8.778,22.312,17.556,33.468,26.334c6.735-6.84,19.997-4.906,24.497,3.573c10.824-7.952,26.675-8.26,37.799-0.734
			c4.827-6.992,13.596-10.07,21.969-11.508c21.477-3.689,44.268,0.889,62.655,12.585c8.043-4.992,19.769-2.697,25.338,4.957
			c1.624,2.233,2.833,4.895,5.12,6.441c3.941,2.664,9.187,0.979,13.936,0.709c23.172-1.316,34.807,31.206,57.53,35.932
			c5.576,1.16,11.877,0.663,16.349,4.191c4.508,3.555,5.47,9.865,7.961,15.037c2.491,5.172,9.189,9.695,13.639,6.068
			c0.232,3.585,0.464,7.17,0.696,10.755c-17.478,15.737-43.312,16.158-66.223,21.469c-14.721,3.412-28.816,9.126-43.451,12.892
			c-26.632,6.853-54.477,7.124-81.972,6.6c-45.019-0.858-90.057-3.736-135.04-1.721c-57.391,2.571-114.767,13.097-171.954,7.617
			c-2.008-0.192-4.081-0.426-5.828-1.434c-4.603-2.658-4.877-9.081-4.585-14.388c1.904-34.533,3.81-69.066,5.712-103.6
			c0.586-10.639-1.153-29.141,8.044-37.255c8.819-7.781,21.545-4.631,27.067,5.792C16.07,328.669,38.558,323.375,38.188,330.938z"/>
		<g>
			<path style="fill:#FFFFFF;" d="M863.012,366.235c6.419-6.42-17.604-7.119-25.142-2.059c-6.062-8.025-19.049-9.571-26.825-3.193
				c-6.79-7.092-19.445-7.324-26.49-0.485c-5.578-4.622-15.354-2.285-18.239,4.36c0.249-4.902-4.643-9.038-9.551-9.07
				c-4.908-0.032-9.386,3.195-12.105,7.282c-2.51-5.682-8.745-9.491-14.946-9.131s-11.954,4.864-13.79,10.799
				c-3.219-5.516-12.961-4.892-15.451,0.989c0.024-6.806-5.118-13.287-11.752-14.811c-6.868-1.578-13.525,2.193-17.09,7.922
				c-6.437-4.606-14.217-1.799-21.275,0.236c2.378-9.621-5.539-9.081-10.859-11.009c-7.389-2.678-11.477-7.836-20.282-7.881
				c-9.754-0.05-19.403,4.895-25.059,12.841c-1.265-5.761-11.221-8.526-15.819-4.832c-3.683-7.166-15.412-8.051-20.129-1.52
				c-3.441-5.66-13.022-5.86-16.696-0.347c2.987-4.482-12.932-8.414-15.064-8.193c-3.358,0.349-5.227,2.388-8.216,3.324
				c-4.079,1.278-8.707-0.262-12.308-2.208c-4.566-2.467-8.779-5.883-13.867-6.909c-13.249-2.674-25.623,11.72-38.818,8.788
				c-5.159-1.146-9.883-4.913-15.119-4.193c-8.395,1.155-13.133,13.194-21.537,12.104c-5.367-0.696-8.62-6.631-13.804-8.187
				c-7.301-2.191-13.774,4.874-20.842,7.727c-11.661,4.707-24.829-2.421-37.318-0.949c-12.556,1.48-23.388,11.539-36.014,10.9
				c-5.913-0.3-11.546-2.977-17.467-3.015c-12.612-0.081-23.064,11.613-35.674,11.388c-7.646-0.137-15.014-4.726-22.538-3.353
				c-3.42,0.624-6.493,2.438-9.787,3.55c-6.746,2.279-14.182,1.551-21.032,3.497c-12.335,3.504-21.924,15.369-34.745,15.561
				c-3.585,0.054-7.199-0.846-10.727-0.207c-4.296,0.779-6.314,5.015-9.613,7.184c-3.919,2.576-8.038,4.644-7.307,10.35
				c0.683,5.335,6.684,9.306,11.862,7.849c4.148-1.168,7.394-5.129,11.703-5.17c4.529-0.043,7.775,4.179,11.732,6.383
				c5.624,3.132,13.374,1.721,17.534-3.191c6.099,9.362,21.257,10.878,29.088,2.907c4.533,6.785,16.695,5.76,20.029-1.687
				c5.321,4.894,15.036,3.5,18.767-2.692c4.353,7.909,17.49,8.578,22.624,1.151c2.162,7.869,14.018,10.743,19.544,4.738
				c0.609,5.15,6.158,8.546,11.343,8.6c5.186,0.055,10.04-2.352,14.663-4.702c1.233,3.959,5.196,6.899,9.342,6.93
				c4.147,0.031,8.153-2.85,9.444-6.791c3.847,5.654,13.693,5.439,17.288-0.378c6.119,5.335,14.99,5.126,23.208,4.147
				c-7.032,1.671-12.168,10.005-9.697,16.979c-8.553-0.309-17.184,2.073-24.368,6.725c-6.097-8.087-14.948-14.058-24.731-16.681
				c-7.023-1.883-16.513-0.758-18.711,6.173c-3.637-3.977-8.984-5.828-14.097-7.531c-5.895-1.964-11.791-3.928-17.686-5.892
				c-4.944-1.647-10.144-3.315-15.273-2.394c-5.129,0.921-10.023,5.395-9.477,10.577c-2.133-3.424-6.783-5.03-10.574-3.653
				c-3.792,1.377-6.327,5.592-5.767,9.587c-1.989-8.419-12.111-13.859-20.23-10.874c-8.589-6.467-20.654-7.985-30.578-3.849
				c-2.804-4.079-9.619-4.447-12.846-0.694c-5.124-5.034-13.97-5.663-19.755-1.406c-5.052-4.238-13.478-3.561-17.788,1.43
				c-4.597-7.408-11.664-13.642-20.172-15.548c-8.508-1.906-18.38,1.304-22.83,8.802c-1.085-4.984-7.029-7.619-12.073-6.862
				c-5.043,0.756-9.335,3.947-13.394,7.036c1.297-0.987-11.776-5.354-13.155-5.351c-6.047,0.015-10.178,3.054-14.778,6.179
				c-0.916-1.601-2.235-3.432-3.894-4.369c-1.916-1.083-4.159-1.416-6.353-1.59c-1.645-0.13-3.396-0.16-4.831,0.655
				c-1.436,0.814-2.349,2.762-1.502,4.178c-4.438-7.429-18.406,0.805-22.337,4.432v94.892h863.678
				C864.667,512.526,861.664,367.583,863.012,366.235z M551.241,486.285c-3.564-0.038-7.726,1.337-8.732,4.757
				c-4.114-5.69-13.256-6.817-18.629-2.297c-2.745-2.127-5.647-4.324-9.075-4.876c-3.428-0.553-7.493,1.179-8.294,4.558
				c-2.987,0.033-6.057,0.083-8.822,1.212c-2.765,1.13-5.193,3.605-5.353,6.588c0.217-4.071-11.262-3.877-13.318-3.332
				c2.912-4.407,2.537-11.984,6.765-14.937c4.995-3.488,11.909-0.259,17.36-4.769c5.45,6.703,16.832,8.474,22.885,1.355
				c6.17,6.265,16.896,7.358,24.203,2.465c1.065,5.259,6.275,9.35,11.637,9.138C558.47,487.22,554.805,486.323,551.241,486.285z
				 M631.537,420.991c-4.217-3.094-10.961-1.789-13.719,2.655c-3.042-1.474-6.25-2.984-9.626-2.807
				c-3.376,0.177-6.887,2.686-6.914,6.066c-1.7-6.897-11.35-10.262-16.97-5.918c-5.621-3.164-12.115-4.756-18.562-4.552
				c-6.725,0.214-14.77,4.264-14.301,10.977c-3.219-5.3-12.194-5.481-15.624-0.315c-3.386-5.287-12.346-5.488-15.965-0.357
				c1.629-2.31-4.986-5.621-8.437-6.818c-0.61-0.096-1.212-0.244-1.795-0.456c0.3-0.004,0.955,0.164,1.795,0.456
				c3.98,0.625,8.353-1.138,10.872-4.28c2.277,2.681,6.434,3.549,9.594,2.004c1.141-0.558,2.177-1.398,3.426-1.629
				c1.707-0.317,3.374,0.563,5.038,1.059c5.549,1.656,12.103-1.549,14.204-6.945c2.217,1.984,5.688,2.419,8.325,1.042
				c2.945,4.521,11.013,3.897,13.228-1.023c6.657,7.561,19.174,9.037,27.407,3.232c1.536,2.757,5.225,3.69,8.302,2.986
				c3.076-0.704,5.685-2.674,8.19-4.593c3.105,3.76,9.857,3.461,12.617-0.558c7.201,0.748,14.279,2.662,20.876,5.645
				C645.732,415.266,635.971,414.419,631.537,420.991z"/>
			<path style="fill:#E4F4F9;" d="M522.291,415.641c2.277,2.681,6.434,3.549,9.594,2.004c1.141-0.558,2.177-1.398,3.426-1.629
				c1.707-0.317,3.374,0.563,5.038,1.059c5.549,1.656,12.103-1.549,14.204-6.945c2.217,1.985,5.688,2.419,8.325,1.042
				c2.945,4.521,11.013,3.897,13.228-1.023c6.657,7.561,19.174,9.037,27.407,3.233c1.536,2.757,5.225,3.69,8.302,2.986
				c3.076-0.704,5.685-2.674,8.19-4.593c3.105,3.76,9.857,3.461,12.617-0.558c5.535,0.575,10.995,1.845,16.221,3.754
				c0.034,0.007,0.068,0.013,0.101,0.02c-0.094-2.996-3.162-6.216-4.712-8.642c-0.974-1.526-1.973-3.08-3.379-4.221
				c-3.871-3.142-9.821-2.224-13.93,0.6c2.203-2.827,2.016-7.245-0.418-9.875c-2.434-2.63-6.824-3.159-9.813-1.181
				c3.361-2.233,4.456-7.266,2.325-10.693c-2.131-3.427-7.13-4.671-10.618-2.644c-2.509-5.528-9.305-8.706-15.156-7.087
				c-5.851,1.619-10.047,7.838-9.358,13.87c-9.356-0.133-18.085,7.926-18.698,17.264c-1.986-3.994-7.969-5.246-11.39-2.383
				c-1.992-5.958-12.076-6.425-14.61-0.677c-1.604-2.291-5.299-2.08-7.464-0.309c-2.165,1.771-3.183,4.549-4.107,7.189
				c-3.918-2.305-9.423-1.407-12.406,2.023c-2.761,3.175-3.068,8.187-0.857,11.739C517.412,419.604,520.383,418.021,522.291,415.641
				z"/>
			<path style="fill:#E4F4F9;" d="M139.715,403.483c0.683,5.335,6.684,9.306,11.862,7.849c4.148-1.168,7.394-5.129,11.703-5.17
				c4.529-0.043,7.775,4.179,11.732,6.383c5.624,3.132,13.374,1.721,17.534-3.191c6.099,9.363,21.257,10.878,29.088,2.907
				c4.533,6.785,16.695,5.76,20.029-1.687c5.321,4.894,15.036,3.5,18.767-2.692c4.353,7.909,17.49,8.578,22.624,1.151
				c2.162,7.869,14.018,10.743,19.544,4.738c0.609,5.15,6.158,8.546,11.343,8.6c5.186,0.055,10.04-2.352,14.663-4.703
				c1.233,3.959,5.196,6.899,9.342,6.93c4.147,0.031,8.153-2.85,9.444-6.791c3.847,5.654,13.693,5.439,17.288-0.378
				c6.068,5.29,14.84,5.128,22.999,4.17c2.149-1.605,3.734-3.683,4.264-6.406c0.995-5.12-3.286-10.61-8.495-10.892
				c3.481-1.676,5.212-6.159,4.007-9.83c-1.205-3.671-5.032-6.218-8.896-6.191c-1.226,0.009-2.518,0.233-3.633-0.279
				c-1.21-0.556-1.885-1.827-2.663-2.908c-5.016-6.974-15.524-6.9-23.663-4.153c-1.361,0.46-2.754,0.98-4.188,0.884
				c-1.719-0.116-3.236-1.096-4.785-1.848c-8.767-4.261-20.547-0.606-25.363,7.869c-6.861-4.383-17.327-1.115-20.476,6.393
				c-3.294-4.422-11.467-3.306-13.455,1.837c-5.507-3.292-12.776-3.399-18.377-0.269c-1.24,0.693-2.526,1.562-3.94,1.422
				c-1.174-0.116-2.149-0.908-3.172-1.497c-3.926-2.26-9.385-1.372-12.393,2.015c-4.631-2.563-10.656-2.38-15.123,0.461
				c-1.22,0.776-2.48,1.776-3.919,1.64c-0.945-0.089-1.763-0.662-2.568-1.166c-6.845-4.289-16.082-4.424-23.049-0.335
				c-0.769,0.451-1.542,0.96-2.425,1.079c-1.345,0.182-2.615-0.568-3.818-1.197c-8.101-4.239-18.486-3.71-26.114,1.331
				c-3.223-3.809-8.108-5.852-13.029-6.136c-1.793-0.104-4.262,0.089-6.811,0.633C142.175,396.265,139.074,398.47,139.715,403.483z"
				/>
			<path style="fill:#E4F4F9;" d="M842.57,374.893c-8.362-4.994-19.922-3.872-27.167,2.637c-5.8-4.687-16.056-1.075-17.639,6.212
				c-7.367-3.532-17.394,2.842-17.323,11.012c-6.987-2.883-15.783,4.354-14.301,11.765c-4.452-0.901-9.112-1.795-13.477-0.539
				c-4.365,1.257-8.258,5.41-7.584,9.902c-5.143-5.335-15.569-3.459-18.53,3.333c-9.662-8.248-22.283-12.953-34.986-13.045
				c-0.309,4.268-6.342,4.579-10.619,4.419c-4.277-0.16-10.022,3.804-7.182,7.006c-5.973-0.907-11.83,5.372-10.511,11.268
				c-9.33-1.64-18.613,8.375-16.272,17.554c-4.573-0.215-9.453-0.299-13.357,2.092c-3.904,2.391-6.017,8.231-3.001,11.676
				c-4.602-1.062-9.483-2.116-13.97-0.64c-4.487,1.476-8.156,6.511-6.4,10.895c-2.186-3.198-6.944-4.29-10.305-2.365
				c-3.361,1.925-4.828,6.581-3.177,10.085c-10.348-8.336-25.461-10.266-37.572-4.798c-1.302-3.643-5.464-5.245-9.153-6.411
				c-11.043-3.49-25.714-5.781-31.902,4.008c2.298-3.331-1.584-7.871-5.587-8.461c-4.003-0.59-8.038,0.964-12.079,0.762
				c-4.167-0.209-8.1-2.27-12.271-2.29c-4.172-0.02-8.918,3.659-7.473,7.573c-6.17-3.545-15.263,0.553-16.693,7.525
				c-6.631-2.144-14.127,5.364-11.973,11.991c-4.01-0.469-8.225-0.912-11.959,0.625c-3.734,1.536-6.686,5.777-5.343,9.585
				c-6.916-3.673-15.353-1.216-22.768,1.303c-5.511,1.872-12.234,6.568-10.742,11.599c0.246,0.337,0.429,0.73,0.511,1.207
				c-0.228-0.404-0.392-0.806-0.511-1.207c-1.376-1.881-5.012-1.72-7.598-0.942c-2.134,0.642-4.354,1.401-6.529,2.298h477.539
				c0,0-2.409-116.282-1.942-141.497C855.819,369.553,848.309,370.742,842.57,374.893z M551.241,486.285
				c-3.564-0.038-7.726,1.337-8.732,4.756c-4.114-5.69-13.256-6.817-18.629-2.297c-2.745-2.126-5.647-4.324-9.075-4.876
				c-3.428-0.553-7.493,1.179-8.294,4.558c-2.987,0.033-6.057,0.083-8.822,1.212c-2.765,1.13-5.193,3.605-5.353,6.588
				c0.217-4.071-11.262-3.877-13.318-3.332c2.912-4.407,2.537-11.984,6.765-14.937c4.995-3.488,11.909-0.259,17.36-4.769
				c5.45,6.703,16.832,8.474,22.885,1.354c6.17,6.266,16.896,7.358,24.203,2.465c1.065,5.259,6.275,9.35,11.637,9.138
				C558.47,487.22,554.805,486.323,551.241,486.285z"/>
			<path style="fill:#E4F4F9;" d="M250.023,512.526c-0.33-2.46-1.111-4.857-2.35-7.011c-3.359-5.841-9.936-9.688-16.673-9.754
				c-0.132-5.898-5.762-10.494-11.569-11.529c-5.808-1.035-11.721,0.616-17.389,2.252c-4.149,1.197-8.984,3.095-9.876,7.32
				c-4.3-7.856-16.922-9.178-22.757-2.385c-2.029-6.076-9.567-9.638-15.55-7.349c2.343-5.393,0.749-12.233-3.736-16.035
				c-4.485-3.802-11.494-4.255-16.431-1.061c-1.069-4.631-2.667-9.359-6.053-12.694c-3.386-3.335-8.992-4.822-13.009-2.281
				c-0.824-6.971-7.925-12.56-14.894-11.722c-2.162,0.26-4.222,1.041-6.256,1.815c-4.92,1.873-9.952,3.81-13.931,7.258
				c-3.979,3.448-6.756,8.771-5.739,13.937c-6.022-3.887-15.006-2.056-19.026,3.877c-2.347-6.544-7.248-13.828-14.163-13.099
				c-2.051,0.216-3.945,1.151-5.906,1.79c-4.33,1.41-9.204,1.448-12.995,3.971c-3.791,2.523-5.135,9.267-0.997,11.169
				c-4.413-1.526-9.388-3.029-13.593-1.001c-3.736,1.802-5.089,7.783-2.268,10.207c0.439,0.19,0.862,0.43,1.256,0.739
				c-0.491-0.177-0.901-0.434-1.256-0.739c-1.204-0.52-2.546-0.611-3.873-0.363v32.688H250.023z"/>
		</g>
		<g style="opacity:0.8;">
			<path style="fill:#FFFFFF;" d="M781.215-0.315c-7.417-1.834-15.856,2.667-18.464,9.848c-5.125,0.077-10.182,1.108-15.204,2.136
				c-5.215,1.067-10.431,2.134-15.646,3.201c-4.538-6.328-12.514-5.081-18.203-6.284c-5.09-1.077-13.84-4.893-19.428-2.425
				c-1.068,0.472-1.908,1.668-1.584,2.791c-1.734,1.285-3.826-0.919-5.735-1.925c-2.041-1.076-4.639-0.679-6.577,0.573
				s-3.294,3.24-4.275,5.328c-2.728-3.363-6.828-5.578-11.136-6.016c-2.292-0.233-4.742,0.062-6.607,1.414
				c-3.534,2.56-2.062,2.442-5.84,3.548c-3.375,0.988-6.699-0.481-10.31,1.422c-0.938,0.495-1.913,1.106-2.968,0.996
				c-0.771-0.081-1.443-0.54-2.085-0.974c-2.595-1.755-5.43-3.386-8.554-3.623c-3.124-0.236-6.582,1.307-7.641,4.255
				c-3.438-3.203-9.78-2.28-12.163,1.77c-2.213-3.037-14.668-6.447-13.161,0.625c-1.172-5.498-13.853,2.083-15.355,2.538
				c-5.293,1.603-10.96-0.569-16.129,3.105c-3.794-3.845-9.867-5.247-14.963-3.456c-3.018-4.727-7.173-9.265-12.678-10.33
				c-5.506-1.065-12.118,3.076-11.668,8.666c-5.491-4.19-14.8-1.172-16.789,5.442c-2.455-3.647-7.028-5.749-11.394-5.237
				c-4.366,0.512-8.329,3.614-9.874,7.73c-4.523-4.065-11.691,0.152-12.37,5.498c0.709-5.586-13.957,0.783-15.423,2.866
				c-4.797,6.814-2.072,13.254,6.207,13.976c-0.459,4.431,2.371,8.405,6.592,9.814c4.47,1.492,14.128-0.825,14.8-6.253
				c1.89,5.317,9.233,8.104,13.848,4.335c3.134,4.905,11.919,4.134,14.151-1.241c4.062,4.221,12.283,2.813,14.708-2.519
				c4.59,6.017,15.84,4.217,18.323-2.933c5.887,5.817,16.169,6.418,22.693,1.326c4.022,5.743,13.96,5.681,17.91-0.111
				c2.469,5.958,13.036,5.258,14.698-0.974c2.468,3.233,5.653,6.807,9.707,6.473c2.624-0.216,4.795-2.065,7.26-2.991
				c3.784-1.421,8.005-0.594,12.026-1.012c4.021-0.418,8.535-3.091,8.354-7.129c3.987,5.244,13.149,5.151,17.028-0.173
				c5.395,10.073,21.438,11.975,29.038,3.442c-1.545,4.288,2.251,9.192,6.76,9.86c4.509,0.668,8.993-1.994,11.761-5.615
				c-0.434,4.052,1.879,8.259,5.533,10.063c3.654,1.804,8.4,1.083,11.353-1.726c0.244,4.973,3.773,9.624,8.497,11.199
				c4.724,1.575,10.337-0.028,13.518-3.859c-1.357,6.89,8.235,12.884,13.834,8.646c3.951,9.029,17.021,12.434,24.875,6.48
				c1.593,3.531,6.179,4.293,10.041,4.577c3.281,0.241,6.562,0.482,9.843,0.724c5.358,0.394,10.834,0.778,16.027-0.598
				c9.713,4.851,20.915,6.666,31.662,5.13V-3.474L781.215-0.315z"/>
			<path style="fill:#E4F4F9;" d="M465.199,47.144c-0.459,4.431,2.371,8.406,6.592,9.814c4.47,1.492,14.128-0.825,14.8-6.253
				c1.89,5.317,9.233,8.104,13.848,4.335c3.134,4.905,11.919,4.134,14.151-1.241c4.062,4.221,12.283,2.813,14.708-2.519
				c4.59,6.017,15.84,4.217,18.323-2.933c5.887,5.817,16.169,6.418,22.693,1.326c4.022,5.742,13.96,5.681,17.91-0.111
				c2.469,5.958,13.036,5.258,14.698-0.974c2.468,3.233,5.653,6.807,9.707,6.473c2.624-0.216,4.795-2.065,7.26-2.991
				c3.784-1.421,8.005-0.594,12.026-1.012c4.021-0.418,8.535-3.091,8.354-7.129c3.987,5.244,13.149,5.151,17.028-0.173
				c5.395,10.073,21.438,11.975,29.038,3.442c-1.545,4.288,2.251,9.192,6.76,9.86c4.509,0.668,8.993-1.994,11.761-5.615
				c-0.434,4.052,1.879,8.259,5.533,10.063c3.654,1.804,8.4,1.083,11.353-1.726c0.244,4.973,3.773,9.624,8.497,11.199
				c4.724,1.575,10.337-0.028,13.518-3.859c-1.357,6.89,8.235,12.884,13.834,8.646c3.951,9.029,17.021,12.434,24.875,6.48
				c1.593,3.531,6.179,4.293,10.041,4.577c3.281,0.241,6.562,0.482,9.843,0.724c5.358,0.394,10.834,0.778,16.027-0.598
				c9.713,4.851,20.915,6.666,31.662,5.13V42.892c-6.447,0.457-12.614,3.228-17.611,9.101c-4.427-1.902-9.745-1.582-13.912,0.839
				c-1.75,1.016-3.392,2.41-5.4,2.659c-2.607,0.322-4.975-1.356-7.39-2.387c-2.416-1.031-5.867-1.076-6.994,1.296
				c-2.639-5.616-5.413-11.414-10.148-15.425c-4.735-4.011-12.018-5.722-17.196-2.302c0.571-9.061-10.117-14.056-18.861-16.498
				c-4.058-1.133-8.432-2.26-12.401-0.846c-3.969,1.414-6.838,6.543-4.409,9.986c-5.981-0.979-11.873,5.417-10.406,11.297
				c-5.902-1.84-14.937-1.741-15.39,4.424c-2.624-7.882-13.881-11.223-20.38-6.048c-4.391-7.087-16.341-7.434-21.135-0.612
				c-3.686-5.658-12.598-6.926-17.716-2.521c-3.705-5.84-12.49-7.662-18.213-3.778c-1.583,1.074-3.127,2.57-5.039,2.502
				c-3.053-0.108-4.516-3.96-7.303-5.21c-4.536-2.034-8.645,3.476-10.599,8.047c-2.02-3.779-6.721-5.904-10.893-4.925
				c-4.171,0.98-7.435,4.976-7.561,9.259c-5.818-3.872-14.242-3.23-19.407,1.478c-2.285-7.072-14.151-7.843-17.331-1.126
				c-0.659-3.798-4.088-6.935-7.929-7.256c-3.841-0.32-7.742,2.206-9.021,5.842c-4.831-4.724-14.204-2.988-17.023,3.152
				c-5.445-3.1-13.457,0.936-14.206,7.157c-3.519,0.401-6.271-2.739-9.117-4.848c-2.845-2.109-8.017-2.586-8.957,0.829
				c0.408-6.788-10.637-10.331-14.253-4.572c-3.114-2.999-8.692-2.862-11.654,0.287c0.222-2.779-2.415-5.118-5.197-5.405
				C455.574,42.393,458.629,46.571,465.199,47.144z"/>
		</g>
		<g>
			<path style="fill:#FFFFFF;" d="M15.491,167.496c3.062,0.089,5.256-0.604,7.809-1.41c1.699-0.536,2.071-2.812,4.666-1.464
				c1.622,0.843,2.713,2.451,4.252,3.438c2.624,1.684,6.02,1.291,9.102,0.823c12.382-1.883,24.726-4.015,37.022-6.396
				c5.701,4.633,13.42,5.883,20.763,6.087c4.522,0.126,9.826-0.508,12.149-4.39c0.63-1.053,1.01-2.313,1.973-3.073
				c2.958-2.337,8.606,3.075,12.281,2.993c4.596-0.102,6.978-0.893,11.969,0.178c5.583,1.198,11.34,1.444,17,0.672
				c1.217-0.166,14.631-3.637,14.268-4.283c5.422,9.652,19.976,12.552,28.683,5.715c2.325,5.493,11.071,6.608,14.7,1.874
				c0.933,7.464,13.061,9.91,16.814,3.391c5.472,7.502,17.719,8.722,24.562,2.446c11.538,4.085,24.353,4.476,36.118,1.1
				c3.344,3.727,9.766,4.097,13.515,0.777c10.184,9.277,26.668,10.738,38.324,3.396c5.74,8.072,20.096,7.248,24.874-1.429
				c7.177,4.388,16.575,4.898,24.185,1.312c11.528,1.53,23.311,1.13,34.709-1.179c2.951-0.598,6.187-1.543,7.719-4.135
				c-1.027,1.739,8.599,3.983,9.541,3.99c4.073,0.031,6.281-2.369,9.815-3.432c8.419-2.532,16.036,0.7,24.23-4.928
				c1.951,4.597,6.48,7.995,11.44,8.581c4.959,0.586,10.156-1.662,13.125-5.678c6.428,4.557,15.964,4.067,21.891-1.125
				c3.4,4.592,10.411,6.019,15.335,3.12c2.991-1.76,4.793-5.32,7.759-6.929c4.432-2.404,4.027-0.553,8.317,1.322
				c6.069,2.652,13.947,1.502,18.403-3.609c-0.005,3.46,4.73,4.884,8.024,3.824c3.294-1.06,6.145-3.492,9.587-3.848
				c3.978-0.411,7.637,2.035,11.533,2.937c4.446,1.029,5.78-2.441,9.311-2.99c4.689-0.729,9.393,2.532,14.655,1.226
				c5.463-1.356,10.347-5.476,11.885-10.891c2.983,2.265,6.375,4.335,10.118,4.439c3.744,0.104,7.782-2.45,8.097-6.181
				c1.098,3.347,4.726,5.665,8.225,5.256c3.499-0.41,6.493-3.503,6.789-7.013c4.696,8.126,17.478,3.449,17.765-5.6
				c0.264-8.308-7.008-14.848-14.28-18.875c-9.454-5.235-16.455-3.579-26.626-3.236c1.347-3.674-1.884-7.82-5.713-8.631
				c-3.828-0.811-7.767,0.854-10.999,3.061c-0.252-4.431-5.274-7.474-9.665-6.828c-4.391,0.646-7.944,4.011-10.272,7.79
				c-1.463-3.594-5.113-6.191-8.988-6.394c-3.875-0.203-7.777,1.998-9.607,5.42c-3.8-5.605-13.164-6.096-17.53-0.919
				c-8.335-5.435-19.794-5.623-28.303-0.466c-1.594-3.895-5.696-6.304-9.843-7.021c-4.147-0.716-8.393-0.02-12.543,0.675
				c-8.904,1.492-18.425,3.291-24.802,9.682c-3.375-4.204-8.909-6.573-14.28-6.114c-5.371,0.459-10.423,3.734-13.034,8.451
				c-9.062-6.598-22.626-6.094-31.173,1.16c-4.09-2.936-8.517-5.785-13.521-6.331c-5.005-0.546-10.689,1.941-12.188,6.747
				c-6-11.18-17.404-4.498-25.783-9.281c-5.023-2.867-8.763-4.454-14.877-3.853c-1.388,0.136-15.812,4.072-14.695,6.138
				c-4.259-7.878-14.659-11.792-23.055-8.675c-6.833-14.37-29.013-18.093-40.164-6.741c-0.145-6.754-8.841-11.616-14.671-8.203
				c3.726-8.595-6.589-19.288-15.312-15.874c-1.158-10.554-15.102-17.224-24.045-11.502c-0.364-20.247-16.335-39.132-36.24-42.854
				c-1.567-8.326-8.874-14.608-16.834-17.51c-7.96-2.902-16.612-3.059-25.075-3.446C104.346,0.023,44.14-15.995-15.745-8.188
				c3.398,29.597,6.258,59.255,8.579,88.956c1.161,14.85,2.186,29.711,3.077,44.58c0.445,7.435,0.852,14.871,1.235,22.309
				c0.22,4.268-2.571,13.748,0.846,16.92C0.879,167.257,11.669,167.384,15.491,167.496z"/>
			<path style="fill:#E4F4F9;" d="M-2.854,147.657c0.22,4.268-2.57,13.747,0.846,16.92c2.887,2.68,13.677,2.807,17.499,2.919
				c3.062,0.089,5.256-0.604,7.809-1.41c1.699-0.536,2.071-2.812,4.666-1.464c1.622,0.843,2.714,2.451,4.252,3.438
				c2.624,1.684,6.02,1.291,9.102,0.823c12.382-1.883,24.726-4.015,37.022-6.396c5.701,4.633,13.42,5.883,20.763,6.087
				c4.522,0.126,9.826-0.508,12.149-4.39c0.63-1.053,1.01-2.313,1.973-3.073c2.958-2.337,8.606,3.075,12.281,2.993
				c4.596-0.102,6.978-0.893,11.969,0.178c5.583,1.198,11.34,1.444,17,0.672c1.217-0.166,14.631-3.637,14.268-4.283
				c5.422,9.652,19.976,12.552,28.683,5.715c2.325,5.493,11.071,6.608,14.7,1.874c0.933,7.464,13.061,9.91,16.814,3.391
				c5.472,7.502,17.719,8.722,24.562,2.446c11.538,4.085,24.353,4.476,36.118,1.1c3.344,3.728,9.766,4.097,13.515,0.777
				c10.184,9.277,26.668,10.738,38.324,3.396c5.74,8.072,20.096,7.248,24.874-1.429c7.177,4.388,16.575,4.898,24.185,1.313
				c11.528,1.53,23.311,1.13,34.709-1.179c2.951-0.598,6.187-1.543,7.719-4.135c-1.027,1.739,8.599,3.983,9.541,3.99
				c4.073,0.031,6.281-2.369,9.815-3.432c8.419-2.532,16.036,0.7,24.23-4.928c1.951,4.597,6.48,7.995,11.44,8.581
				c4.959,0.586,10.156-1.662,13.125-5.678c6.428,4.557,15.964,4.067,21.891-1.125c3.401,4.592,10.411,6.019,15.335,3.12
				c2.991-1.76,4.793-5.32,7.759-6.929c4.432-2.404,4.027-0.553,8.317,1.322c6.069,2.652,13.947,1.502,18.403-3.609
				c-0.005,3.46,4.73,4.884,8.024,3.824c3.294-1.06,6.145-3.492,9.587-3.848c3.978-0.411,7.637,2.035,11.533,2.937
				c4.446,1.029,5.78-2.441,9.311-2.99c4.689-0.729,9.393,2.532,14.655,1.226c5.463-1.356,10.347-5.476,11.885-10.89
				c2.983,2.265,6.375,4.335,10.118,4.439c3.744,0.104,7.782-2.449,8.097-6.181c1.098,3.347,4.726,5.665,8.225,5.256
				c3.499-0.41,6.493-3.503,6.789-7.013c4.696,8.126,17.478,3.449,17.765-5.6c0.238-7.494-5.658-13.543-12.152-17.613
				c-0.056,0.302-0.12,0.603-0.203,0.904c-2.173,7.865-13.293,11.486-19.681,6.411c-0.302,7.461-8.45,10.504-14.732,11.095
				c-7.25,0.682-12.279-2.594-16.73-8.56c-1.281,5.871-6.43,10.696-12.372,11.594c-5.942,0.898-12.287-2.191-15.245-7.422
				c-6.752,5.589-16.845,6.766-24.701,2.879c-2.411-1.193-4.894-2.867-7.541-2.391c-1.269,0.228-2.397,0.939-3.629,1.322
				c-8.531,2.654-15.113-5.55-24.447-1.871c-10.385,4.094-21.399,4.916-32.575,6.446c-6.303,0.863-13.635,2.455-16.264,8.248
				c-7.82-3.881-18.12-1.9-23.943,4.604c-0.812-8.54-15.821-9.948-18.206-1.708c-9.877-6.355-23.394-6.516-33.42-0.398
				c2.639-2.546-1.591-6.417-5.126-7.393c-14.385-3.973-29.8-4.157-44.275-0.526c-5.113-8.023-17.923-9.561-24.79-2.976
				c-3.731-11.527-19.271-17.317-29.635-11.041c-1.891-3.993-3.975-8.208-7.743-10.517c-3.767-2.309-9.713-1.595-11.371,2.5
				c-10.231-15.432-38.41-11.795-44.387,5.729c-6.419-9.331-23.494-7.14-27.35,3.509c-10.14-8.05-25.377-8.958-36.401-2.169
				c-2.966-11.018-19.046-15.632-27.403-7.863c1.967-11.123-8.705-22.583-19.94-21.411c0.098-7.775-5.283-15.312-12.668-17.744
				c-7.386-2.432-16.192,0.432-20.733,6.744c-1.466-6.772-9.211-11.456-15.889-9.607c-6.678,1.848-10.913,9.848-8.688,16.41
				c-5.884-5.295-13.411-9.515-21.305-8.919c-7.893,0.595-15.553,7.548-14.63,15.41c-5.526-4.925-11.366-10.019-18.563-11.751
				c-7.197-1.731-16.095,1.188-18.503,8.188c-2.73-1.713-5.851-2.717-9.05-3.049c0.502,7.289,0.973,14.58,1.41,21.873
				C-3.643,132.783-3.237,140.219-2.854,147.657z"/>
			<path style="fill:#E4F4F9;" d="M79.777,35.272c4.533-3.499,11.478-3.413,15.923,0.198c4.181-11.994,16.188-20.822,28.883-21.235
				c4.188-0.136,8.549,0.629,11.965,3.057c3.415,2.428,5.665,6.759,4.81,10.862c5.11-3.818,12.341-4.571,18.128-1.888
				c5.787,2.683,9.885,8.689,10.272,15.056c9.417-5.351,23.264,1.972,24.142,12.768c5.851-0.145,10.867,6.274,9.311,11.916
				c-0.152,0.553-0.368,1.112-0.779,1.513c-1.323,1.29-3.487,0.224-5.066-0.736c-7.005-4.256-15.752-5.54-23.685-3.477
				c-4.286-8.126-15.799-7.933-24.888-6.598c-0.367-7.27-5.816-13.998-12.851-15.869c-7.034-1.871-15.106,1.263-19.035,7.389
				c-7.13-5.937-19.092-4.672-24.824,2.625c0.756-0.963-14.646-3.312-14.721-3.358C72.857,44.717,75.792,38.349,79.777,35.272z"/>
		</g>
		<g>
			<path style="fill:#FFFFFF;" d="M4.861,480.2c0.355,0.305,0.765,0.562,1.256,0.739C5.723,480.63,5.3,480.39,4.861,480.2z"/>
		</g>
		<g>
			<path style="fill:none;" d="M550.232,477.009c-7.307,4.893-18.033,3.801-24.203-2.465c-6.054,7.12-17.435,5.349-22.885-1.354
				c-5.451,4.51-12.365,1.281-17.36,4.769c-4.228,2.952-3.854,10.529-6.765,14.937c2.056-0.545,13.535-0.739,13.318,3.332
				c0.159-2.983,2.588-5.458,5.353-6.588c2.765-1.129,5.835-1.179,8.822-1.212c0.802-3.378,4.866-5.111,8.294-4.558
				c3.428,0.553,6.33,2.75,9.075,4.876c5.373-4.52,14.515-3.393,18.629,2.297c1.006-3.419,5.168-4.794,8.732-4.756
				c3.564,0.038,7.229,0.935,10.628-0.139C556.507,486.359,551.297,482.268,550.232,477.009z"/>
		</g>
		<g>
			<path style="fill:none;" d="M550.232,477.009c-7.307,4.893-18.033,3.801-24.203-2.465c-6.054,7.12-17.435,5.349-22.885-1.354
				c-5.451,4.51-12.365,1.281-17.36,4.769c-4.228,2.952-3.854,10.529-6.765,14.937c2.056-0.545,13.535-0.739,13.318,3.332
				c0.159-2.983,2.588-5.458,5.353-6.588c2.765-1.129,5.835-1.179,8.822-1.212c0.802-3.378,4.866-5.111,8.294-4.558
				c3.428,0.553,6.33,2.75,9.075,4.876c5.373-4.52,14.515-3.393,18.629,2.297c1.006-3.419,5.168-4.794,8.732-4.756
				c3.564,0.038,7.229,0.935,10.628-0.139C556.507,486.359,551.297,482.268,550.232,477.009z"/>
		</g>
	</g>
</g>
</svg>
